<?xml version="1.0" standalone="no"?>
<!DOCTYPE svg PUBLIC "-//W3C//DTD SVG 20010904//EN"
 "http://www.w3.org/TR/2001/REC-SVG-20010904/DTD/svg10.dtd">
<svg version="1.0" xmlns="http://www.w3.org/2000/svg"
 width="1024.000000pt" height="1024.000000pt" viewBox="0 0 1024.000000 1024.000000"
 preserveAspectRatio="xMidYMid meet">

<g transform="translate(0.000000,1024.000000) scale(0.100000,-0.100000)"
fill="#000000" stroke="none">
<path d="M5994 9116 c-53 -24 -121 -94 -131 -134 -4 -17 -10 -21 -22 -16 -96
41 -146 43 -216 10 -88 -41 -138 -109 -151 -204 l-7 -52 -36 6 c-86 14 -198
-48 -244 -134 -30 -56 -41 -146 -24 -204 6 -23 4 -28 -10 -28 -34 0 -118 -47
-149 -82 -49 -56 -68 -116 -62 -197 3 -44 13 -82 25 -103 l20 -34 -26 -31
c-14 -17 -34 -43 -44 -57 -13 -18 -27 -26 -48 -26 -65 0 -305 -43 -423 -75
-368 -101 -687 -263 -1016 -519 -134 -103 -421 -389 -533 -530 -452 -569 -726
-1209 -824 -1926 -25 -182 -25 -696 0 -870 79 -558 243 -939 572 -1333 387
-463 956 -801 1630 -971 242 -61 505 -95 800 -103 559 -16 1043 83 1500 307
595 291 1053 759 1328 1357 219 476 309 1099 242 1681 -135 1173 -873 2251
-1870 2733 -134 65 -365 149 -408 149 -33 0 -11 13 29 17 43 4 102 33 127 61
18 20 18 20 68 -14 102 -68 210 -57 308 31 l38 35 19 -21 c27 -30 87 -58 138
-65 88 -13 203 52 247 138 19 38 21 39 39 23 50 -45 175 -58 245 -26 50 23
109 84 130 133 18 45 19 120 1 169 -13 36 -12 36 21 54 18 10 53 40 77 65 69
74 84 157 42 245 -40 85 -106 134 -202 150 l-41 6 -6 58 c-11 127 -97 215
-221 228 -46 4 -81 -3 -147 -31 -10 -5 -19 1 -26 17 -20 42 -76 99 -118 118
-26 12 -64 19 -108 19 -78 0 -126 -20 -181 -74 l-34 -34 -28 30 c-72 76 -194
99 -290 54z m453 -450 c72 -25 124 -20 214 18 11 5 24 -7 46 -43 42 -66 117
-111 189 -111 49 0 50 -1 47 -27 -4 -26 6 -86 20 -123 5 -11 -8 -22 -44 -39
-49 -22 -118 -98 -119 -128 0 -18 -7 -16 -39 6 -62 45 -181 52 -253 15 -18 -9
-47 -30 -65 -47 l-32 -30 -35 31 c-88 77 -265 65 -334 -23 l-22 -27 -35 26
c-117 90 -268 68 -352 -50 -12 -16 -25 -42 -28 -57 -7 -25 -11 -27 -61 -27
-30 0 -71 -7 -91 -15 -19 -8 -37 -15 -38 -15 -2 0 4 21 12 48 13 43 12 86 -3
148 -5 18 1 23 38 32 107 27 198 140 198 246 0 31 1 31 45 28 91 -8 192 49
233 131 l23 46 46 -21 c88 -39 206 -14 282 61 l36 36 38 -37 c21 -20 59 -43
84 -52z m-1077 -1081 c552 -58 992 -265 1394 -654 496 -481 819 -1197 907
-2011 16 -144 16 -543 1 -675 -38 -319 -105 -573 -217 -827 -188 -423 -531
-821 -940 -1093 -601 -397 -1380 -550 -2151 -420 -987 166 -1730 772 -1980
1615 -79 269 -109 491 -109 810 1 341 37 609 126 922 232 821 749 1541 1414
1968 324 209 681 333 1075 373 92 10 359 5 480 -8z"/>
<path d="M3726 6845 c-220 -56 -386 -236 -421 -457 -7 -46 -18 -173 -25 -283
-6 -110 -18 -285 -25 -390 -8 -104 -30 -442 -50 -750 -19 -308 -40 -614 -46
-680 -6 -66 -11 -172 -12 -235 0 -99 3 -126 26 -193 34 -97 65 -146 138 -220
75 -75 193 -133 299 -147 115 -16 1019 -69 1350 -80 162 -5 432 -14 600 -21
479 -17 575 -16 644 5 197 59 342 203 401 396 16 54 35 301 125 1660 16 245
35 517 41 605 11 144 10 169 -5 240 -10 44 -33 112 -51 150 -69 145 -234 268
-392 294 -125 20 -591 53 -1078 76 -586 28 -767 34 -1115 40 -286 4 -355 2
-404 -10z m870 -230 c376 -14 585 -24 974 -45 91 -5 262 -14 380 -20 118 -6
243 -15 278 -20 187 -26 309 -156 320 -340 2 -41 -8 -248 -22 -460 -15 -212
-36 -518 -46 -680 -11 -162 -27 -383 -35 -490 -8 -107 -22 -301 -30 -430 -9
-129 -21 -251 -27 -270 -33 -106 -106 -192 -196 -232 -30 -13 -78 -22 -132
-25 -205 -13 -2346 82 -2444 108 -111 29 -214 133 -240 244 -15 61 -11 143 54
995 11 140 26 374 35 520 8 146 19 333 25 415 6 83 15 221 20 308 17 261 75
360 243 418 67 24 292 25 843 4z"/>
<path d="M3933 6351 c-79 -41 -154 -122 -183 -199 -23 -59 -37 -203 -75 -787
-9 -132 -27 -397 -40 -590 -14 -192 -28 -417 -31 -500 -6 -137 -5 -155 15
-206 36 -94 121 -176 221 -212 46 -17 136 -22 1065 -62 198 -9 493 -22 656
-30 323 -16 333 -15 432 37 70 38 131 102 164 174 21 46 27 83 39 227 18 225
60 806 79 1077 8 118 22 319 30 445 9 127 14 249 10 272 -9 62 -60 156 -109
201 -50 47 -126 88 -177 96 -75 13 -1389 74 -1769 82 l-265 6 -62 -31z m887
-161 c894 -40 1136 -52 1171 -61 73 -18 138 -81 157 -153 10 -35 7 -94 -43
-766 -19 -261 -44 -605 -55 -765 -11 -159 -22 -307 -25 -328 -12 -86 -79 -167
-157 -187 -40 -11 -242 -8 -360 6 l-48 6 0 53 0 53 -152 6 c-84 4 -192 9 -239
12 l-85 6 4 109 5 109 -60 0 -60 0 -7 -46 c-3 -26 -6 -76 -6 -112 l0 -65 -37
7 c-21 3 -47 6 -57 6 -18 0 -19 6 -13 103 4 56 9 132 13 168 l7 66 -114 2
-114 2 -3 -50 -3 -51 51 0 51 0 -6 -87 c-11 -145 -12 -148 -26 -146 -8 1 -76
5 -151 8 l-138 7 0 32 c0 54 19 399 26 454 l5 52 40 0 39 0 0 48 c0 26 3 76 6
112 l6 65 -48 0 c-27 0 -96 2 -152 3 l-104 2 4 54 3 54 -59 6 c-110 11 -156 8
-156 -11 0 -10 -3 -34 -6 -54 l-6 -36 61 -7 61 -7 0 -54 0 -55 98 0 c53 0 114
-3 135 -6 40 -7 44 -17 31 -84 -6 -30 -9 -32 -44 -28 l-38 3 -6 -65 c-10 -111
-36 -472 -37 -533 l-2 -59 -121 7 c-146 7 -194 23 -241 78 -65 75 -64 51 -12
756 26 350 55 753 63 896 8 143 20 284 25 313 13 66 60 130 119 160 51 27 -6
27 810 -8z"/>
<path d="M4200 6065 l0 -45 -54 0 c-53 0 -54 -1 -60 -32 -3 -18 -8 -130 -11
-248 -3 -118 -8 -231 -10 -252 l-5 -36 54 -4 54 -3 6 85 c8 108 26 426 26 464
l0 29 95 -5 95 -5 0 33 c0 18 3 39 6 48 5 14 -7 16 -95 16 l-101 0 0 -45z
m143 29 c33 -6 37 -10 37 -38 l0 -31 -85 3 -85 3 0 35 c0 34 0 34 48 34 26 0
64 -3 85 -6z"/>
<path d="M4221 6068 c-1 -19 4 -28 14 -28 8 0 15 8 15 18 0 14 -2 14 -9 3 -7
-11 -10 -9 -14 10 -4 23 -4 22 -6 -3z"/>
<path d="M5500 6026 c0 -48 -11 -56 -77 -56 -26 0 -33 -4 -33 -19 0 -10 -3
-33 -6 -50 l-6 -31 55 0 55 0 7 56 7 57 84 -6 c47 -2 87 -6 89 -8 4 -5 -12
-418 -20 -511 l-6 -68 60 0 61 0 0 -60 0 -60 54 0 54 0 4 55 3 55 -57 6 -58 7
0 76 c0 42 5 168 11 280 13 227 14 221 -55 221 l-38 0 4 44 c3 42 1 45 -26 50
-16 3 -59 6 -97 6 l-69 0 0 -44z m119 28 c60 -7 61 -7 61 -38 l0 -31 -60 3
c-33 2 -58 8 -54 13 3 5 -6 14 -20 21 -30 13 -35 38 -7 38 10 0 46 -3 80 -6z
m-78 -51 c13 -16 12 -17 -3 -4 -14 11 -18 11 -18 1 0 -8 -3 -11 -6 -7 -5 5 3
27 10 27 2 0 10 -8 17 -17z m-63 -80 c-1 -37 -1 -37 -5 -5 -4 28 -8 32 -34 32
-33 0 -40 -25 -9 -33 28 -7 25 -24 -5 -29 -23 -5 -25 -2 -25 33 0 39 0 39 40
39 40 0 40 0 38 -37z"/>
<path d="M5566 6031 c-4 -5 -2 -12 3 -15 5 -4 12 -2 15 3 4 5 2 12 -3 15 -5 4
-12 2 -15 -3z"/>
<path d="M5594 6023 c2 -12 14 -18 39 -21 31 -3 37 0 37 15 0 15 -8 20 -39 21
-32 2 -39 0 -37 -15z"/>
<path d="M4400 5984 c0 -16 -3 -39 -6 -51 -6 -22 -3 -23 47 -23 l54 0 3 45 c3
43 2 45 -25 45 -15 0 -38 3 -50 6 -20 6 -23 2 -23 -22z"/>
<path d="M4497 5848 c-3 -24 -4 -45 -1 -48 8 -7 595 -39 745 -39 l135 -1 3 50
c1 28 1 50 -1 51 -19 4 -628 28 -734 28 l-141 1 -6 -42z m518 17 c182 -8 335
-15 340 -15 6 0 9 -17 7 -41 l-4 -42 -187 7 c-218 8 -520 23 -606 31 l-61 6 4
35 4 34 87 0 c47 0 235 -7 416 -15z"/>
<path d="M3950 5390 l0 -50 55 0 55 0 0 50 0 50 -55 0 -55 0 0 -50z"/>
<path d="M4436 5408 c-3 -13 -6 -38 -6 -55 l0 -33 -59 0 -58 0 -7 -51 c-4 -28
-6 -53 -4 -54 2 -2 28 -6 60 -10 l56 -7 7 56 7 56 59 0 59 0 0 -60 0 -60 55 0
55 0 0 38 c0 20 3 47 6 60 6 21 4 22 -55 22 l-61 0 7 60 6 60 -60 0 c-54 0
-61 -2 -67 -22z"/>
<path d="M5236 5384 c-3 -9 -6 -33 -6 -55 l0 -39 -60 0 -60 0 0 -54 0 -54 55
-4 c51 -3 55 -1 55 18 0 12 3 36 6 53 6 30 7 31 65 31 l59 0 0 -58 0 -59 54
-2 54 -2 4 61 3 60 -58 0 -58 0 6 54 c7 50 6 54 -17 59 -44 12 -96 8 -102 -9z"/>
<path d="M3938 5165 c-2 -26 1 -45 7 -46 5 -1 54 -4 108 -8 l97 -6 0 37 c0 20
3 43 6 52 5 14 -8 16 -104 16 l-110 0 -4 -45z m202 -5 l0 -40 -60 0 c-50 0
-60 3 -61 18 0 10 -3 12 -6 5 -2 -7 -18 -13 -34 -13 -26 0 -29 3 -29 35 l0 35
95 0 95 0 0 -40z"/>
<path d="M4040 5168 c11 -12 23 -18 27 -15 3 4 1 7 -5 7 -7 0 -12 7 -12 15 0
8 -7 15 -15 15 -13 0 -12 -4 5 -22z"/>
<path d="M4066 5178 c7 -11 34 -10 34 1 0 6 -9 9 -19 8 -11 0 -17 -5 -15 -9z"/>
<path d="M4106 5158 c-5 -19 -8 -21 -16 -8 -6 9 -10 10 -10 3 0 -6 -8 -14 -17
-16 -10 -3 0 -5 22 -6 36 -1 40 2 41 24 2 31 -12 33 -20 3z"/>
<path d="M4790 5133 c0 -27 -3 -72 -6 -100 l-7 -53 -58 0 -59 0 0 50 0 50 -55
0 c-47 0 -55 -3 -55 -19 0 -10 -3 -33 -6 -50 -6 -30 -6 -31 32 -31 22 0 50 -3
63 -7 21 -5 23 -10 19 -59 l-5 -54 59 0 58 0 0 45 0 45 61 0 62 0 -6 -54 -5
-53 75 -7 c120 -10 123 -9 123 18 0 13 3 38 6 55 6 30 7 31 65 31 l59 0 0 33
c0 17 3 42 6 55 6 21 4 22 -60 22 -63 0 -66 -1 -66 -24 0 -13 -3 -37 -6 -55
l-6 -31 -92 6 c-50 4 -94 9 -98 13 -3 3 -4 30 -1 59 l6 53 46 -3 46 -2 3 57 3
57 -101 0 -100 0 0 -47z"/>
<path d="M5740 5100 l0 -47 53 -7 c28 -3 75 -6 103 -6 l51 0 6 48 c3 26 4 48
4 48 -1 1 -50 4 -109 6 l-108 5 0 -47z"/>
<path d="M5631 4923 c1 -5 1 -32 0 -61 l-1 -53 -220 7 -220 7 0 -55 0 -55 50
-7 50 -7 0 -49 0 -50 51 0 51 0 -7 -49 -6 -48 51 -7 52 -7 -7 -219 -7 -220 93
-1 c52 -1 104 -3 116 -4 20 -2 23 4 29 47 l7 50 43 -4 43 -3 6 55 6 55 58 -3
58 -4 7 79 c3 43 11 146 16 228 5 83 12 175 16 206 5 53 4 57 -18 62 -13 4
-40 7 -61 7 l-39 0 4 49 3 49 -59 6 c-81 8 -166 8 -165 -1z m216 -200 c-4 -54
-9 -158 -13 -230 l-7 -133 -53 0 -54 0 0 -49 c0 -26 -3 -76 -6 -110 l-7 -61
-52 0 -52 0 4 168 c3 92 6 173 9 180 3 10 16 11 47 7 l44 -7 6 69 c4 37 7 112
7 166 l0 97 66 0 67 0 -6 -97z m-229 -38 c2 -2 1 -47 -3 -99 l-7 -96 -54 0
-54 0 0 55 0 55 -51 0 c-48 0 -51 1 -45 23 3 12 6 35 6 51 l0 29 103 -8 c56
-4 104 -8 105 -10z"/>
<path d="M5000 4386 c0 -13 -3 -38 -6 -55 l-6 -31 50 0 c48 0 50 1 56 31 14
73 11 79 -44 79 -46 0 -50 -2 -50 -24z"/>
<path d="M3682 3279 c-168 -22 -301 -173 -310 -354 -11 -221 148 -386 374
-388 70 0 90 4 145 30 81 38 144 101 183 183 28 59 31 74 31 160 0 88 -3 101
-33 162 -74 151 -221 229 -390 207z m143 -228 c48 -27 75 -76 75 -135 0 -106
-68 -170 -173 -163 -93 5 -149 63 -150 156 -2 129 133 206 248 142z"/>
<path d="M5830 3185 c-68 -21 -150 -83 -193 -145 -51 -74 -70 -144 -65 -239 8
-136 72 -238 190 -302 61 -33 67 -34 173 -34 106 0 112 1 173 34 129 70 196
183 196 331 0 106 -26 178 -90 249 -67 75 -153 114 -257 118 -52 2 -98 -3
-127 -12z m186 -211 c20 -10 45 -34 59 -59 42 -71 29 -150 -34 -209 -25 -24
-42 -31 -89 -34 -40 -3 -68 1 -88 11 -152 79 -100 307 69 307 27 0 64 -7 83
-16z"/>
<path d="M4728 3117 c-104 -39 -176 -104 -224 -203 -25 -53 -28 -70 -29 -159
0 -94 2 -105 33 -167 87 -177 300 -253 480 -173 69 32 152 111 188 182 27 53
29 67 29 163 0 94 -3 111 -28 161 -33 68 -119 152 -184 181 -60 27 -209 35
-265 15z m197 -222 c51 -29 75 -75 75 -143 0 -158 -208 -215 -298 -81 -20 29
-23 44 -20 96 3 53 9 68 33 94 60 63 139 76 210 34z"/>
</g>
</svg>
